<svg preserveAspectRatio="none" width="100%" height="100%" overflow="visible" style="display: block;" viewBox="0 0 16 16" fill="none" xmlns="http://www.w3.org/2000/svg">
<g id="calendar">
<path id="Vector" d="M11.25 2V4.66667M5.75 2V4.66667M3 7.33333H14M3 4.66667C3 4.31304 3.14487 3.97391 3.40273 3.72386C3.66059 3.47381 4.01033 3.33333 4.375 3.33333H12.625C12.9897 3.33333 13.3394 3.47381 13.5973 3.72386C13.8551 3.97391 14 4.31304 14 4.66667V12.6667C14 13.0203 13.8551 13.3594 13.5973 13.6095C13.3394 13.8595 12.9897 14 12.625 14H4.375C4.01033 14 3.66059 13.8595 3.40273 13.6095C3.14487 13.3594 3 13.0203 3 12.6667V4.66667Z" stroke="#003822" stroke-width="1.6" stroke-linecap="round" stroke-linejoin="round"/>
</g>
</svg>
