<svg width="150" height="88" viewBox="0 0 150 88" fill="none" xmlns="http://www.w3.org/2000/svg">

<g id="&#208;&#159;&#208;&#181;&#209;&#128;&#208;&#178;&#209;&#139;&#208;&#185; &#208;&#186;&#208;&#176;&#208;&#180;&#209;&#128;">

<g id="Group 146">
<g id="Group 117">
<g id="g12">
<path id="path14" d="M4.95109 66.8348H8.84703L6.93148 62.7082H6.88285L4.95109 66.8348ZM0 71.3538L5.27572 60.3704H8.57104L13.847 71.3538H10.8925L9.77249 68.906H3.99342L2.85701 71.3538H0Z" fill="#FFEEEE"/>
</g>
<g id="g18">
<g id="g24">
<path id="path26" d="M22.039 62.606V65.4304H25.2857C26.5518 65.4304 27.3148 64.8811 27.3148 64.0183C27.3148 63.1552 26.5518 62.606 25.2857 62.606H22.039ZM30.4804 71.3929H27.396L24.7986 67.6271H22.039V71.3929H19.3281V60.4092H25.3344C28.3699 60.4092 30.0421 61.9784 30.0421 64.0183C30.0421 65.4775 29.1979 66.6857 27.6072 67.2663L30.4804 71.3929Z" fill="#FFEEEE"/>
</g>
<g id="g28">
<path id="path30" d="M38.8395 71.3929V62.6844H34.7812V60.4092H45.6251V62.6844H41.5668V71.3929H38.8395Z" fill="#FFEEEE"/>
</g>
<g id="g32">
<path id="path34" d="M51.2812 71.3929V60.4092H61.3459V62.606H53.9922V64.724H59.7226V66.8425H53.9922V69.1962H61.5083V71.3929H51.2812Z" fill="#FFEEEE"/>
</g>
<g id="g36">
<path id="path38" d="M67.7578 71.3929V60.4092H70.4687V69.1177H76.9621V71.3929H67.7578Z" fill="#FFEEEE"/>
</g>
<g id="g40">
<path id="path42" d="M90.7191 71.3929V63.1395C90.1185 63.5003 89.193 63.7043 88.2031 63.7043V61.8529C89.7126 61.79 90.7353 61.0054 91.125 60.4092H93.43V71.3929H90.7191Z" fill="#FFEEEE"/>
</g>
<g id="g44">
<path id="path46" d="M100.436 71.3929L105.485 62.6373H99.2188V60.4092H108.504V62.402L103.31 71.3929H100.436Z" fill="#FFEEEE"/>
</g>
<g id="g48">
<path id="path50" d="M112.609 74.6859L118.502 60.2502H120.888L115.012 74.6859H112.609Z" fill="#FFEEEE"/>
</g>
<g id="g52">
<path id="path54" d="M125.242 69.9327L126.784 68.2537C127.012 68.4421 128.262 69.4305 130.112 69.4305C131.784 69.4305 132.661 68.8028 132.661 67.8144C132.661 66.8416 131.768 66.2139 130.193 66.2139C128.749 66.2139 127.888 66.8416 127.677 66.9829L125.778 66.7005L126.379 60.4083H134.625V62.6363H128.749L128.57 64.582C129.073 64.378 129.917 64.1742 130.924 64.1742C133.716 64.1742 135.469 65.6961 135.469 67.8144C135.469 69.9796 133.554 71.6273 130.275 71.6273C127.304 71.6273 125.518 70.2151 125.242 69.9327Z" fill="#FFEEEE"/>
</g>
<g id="g56">
<path id="path58" d="M140.5 71.3929C140.5 66.0893 147.188 66.1521 147.188 63.8299C147.188 63.0924 146.474 62.4804 145.224 62.4804C143.779 62.4804 142.903 63.4219 142.756 63.7357L140.581 62.7002C140.792 62.2607 142.107 60.1739 145.354 60.1739C148.13 60.1739 149.996 61.7273 149.996 63.673C149.996 66.9681 145.695 67.1563 144.185 69.0706H149.996V71.3929H140.5Z" fill="#FFEEEE"/>
</g>
<g id="g60">
<path id="path62" d="M21.1531 87.0418H23.0231C23.7158 87.0418 24.0895 86.6971 24.0895 86.2262C24.0895 85.7402 23.6919 85.4109 23.0231 85.4109H21.1531V87.0418ZM21.1531 84.595H22.8242C23.4371 84.595 23.8112 84.3912 23.8112 83.9361C23.8112 83.4812 23.4371 83.2775 22.8242 83.2775H21.1531V84.595ZM20.0547 87.9046V82.4146H22.9516C24.2408 82.4146 24.9091 83.011 24.9091 83.8657C24.9091 84.6658 24.2248 84.9323 24.0818 84.987C24.2408 85.0187 25.1878 85.3556 25.1878 86.336C25.1878 87.1991 24.551 87.9046 23.0869 87.9046H20.0547Z" fill="#FFEEEE"/>
</g>
<g id="g64">
<path id="path66" d="M29.2804 87.9046V85.9438L26.7812 82.4144H28.0947L29.8297 84.9716H29.869L31.6282 82.4144H32.8775L30.3788 85.9438V87.9046H29.2804Z" fill="#FFEEEE"/>
</g>
<g id="g68">
<path id="path70" d="M42.5793 87.9046L40.4062 82.4144H41.568L43.1359 86.4693H43.1679L44.7436 82.4144H45.7624L47.3463 86.4693H47.3781L48.9698 82.4144H50.0917L47.8872 87.9046H46.8209L45.2613 83.8968H45.2291L43.6613 87.9046H42.5793Z" fill="#FFEEEE"/>
</g>
<g id="g72">
<path id="path74" d="M52.2541 84.3284L51.625 83.9756L52.5962 82.2579L53.4159 82.7445L52.2541 84.3284Z" fill="#FFEEEE"/>
</g>
<g id="g76">
<path id="path78" d="M61.0201 85.1613C61.0201 84.0711 60.0335 83.2556 58.6729 83.2556C57.3116 83.2556 56.3246 84.0711 56.3246 85.1613C56.3246 86.2515 57.3116 87.0674 58.6729 87.0674C60.0335 87.0674 61.0201 86.2515 61.0201 85.1613ZM55.2188 85.1613C55.2188 83.5927 56.5794 82.3223 58.6729 82.3223C60.7657 82.3223 62.1267 83.5927 62.1267 85.1613C62.1267 86.7299 60.7657 88.0003 58.6729 88.0003C56.5794 88.0003 55.2188 86.7299 55.2188 85.1613Z" fill="#FFEEEE"/>
</g>
<g id="g80">
<path id="path82" d="M64.6484 87.9046V82.4144H65.7065L69.2797 86.336H69.3202V82.4144H70.4103V87.9046H69.3518L65.7863 83.983H65.7464V87.9046H64.6484Z" fill="#FFEEEE"/>
</g>
<g id="g84">
<path id="path86" d="M73.3672 87.9046V82.4144H78.1819V83.3401H74.4651V84.6183H77.386V85.5283H74.4651V86.9793H78.2617V87.9046H73.3672Z" fill="#FFEEEE"/>
</g>
<g id="g88">
<path id="path90" d="M87.5312 87.9046V82.4144H88.6292V84.6658H91.9719V82.4144H93.0703V87.9046H91.9719V85.6069H88.6292V87.9046H87.5312Z" fill="#FFEEEE"/>
</g>
<g id="g92">
<path id="path94" d="M101.411 85.1613C101.411 84.0711 100.425 83.2556 99.0633 83.2556C97.7022 83.2556 96.7156 84.0711 96.7156 85.1613C96.7156 86.2515 97.7022 87.0674 99.0633 87.0674C100.425 87.0674 101.411 86.2515 101.411 85.1613ZM95.6094 85.1613C95.6094 83.5927 96.9704 82.3223 99.0633 82.3223C101.156 82.3223 102.517 83.5927 102.517 85.1613C102.517 86.7299 101.156 88.0003 99.0633 88.0003C96.9704 88.0003 95.6094 86.7299 95.6094 85.1613Z" fill="#FFEEEE"/>
</g>
<g id="g96">
<path id="path98" d="M106.194 87.9046V83.3561H104.156V82.4144H109.33V83.3561H107.292V87.9046H106.194Z" fill="#FFEEEE"/>
</g>
<g id="g100">
<path id="path102" d="M111.602 87.9048V82.4146H116.417V83.3403H112.7V84.6185H115.621V85.5284H112.7V86.9795H116.496V87.9048H111.602Z" fill="#FFEEEE"/>
</g>
<g id="g104">
<path id="path106" d="M119.078 87.9046V82.4144H120.176V86.9635H123.463V87.9046H119.078Z" fill="#FFEEEE"/>
</g>
<g id="g108">
<path id="path110" d="M125.109 87.1221L125.762 86.4241C125.89 86.5575 126.558 87.0828 127.585 87.0828C128.373 87.0828 128.827 86.7928 128.827 86.3694C128.827 85.2635 125.356 85.8828 125.356 83.9067C125.356 83.0438 126.144 82.3223 127.585 82.3223C128.898 82.3223 129.67 82.9183 129.837 83.0754L129.168 83.8047C129.057 83.6791 128.484 83.2398 127.609 83.2398C126.892 83.2398 126.478 83.554 126.478 83.8987C126.478 84.9653 129.941 84.3536 129.941 86.3379C129.941 87.2712 129.121 88.0003 127.601 88.0003C126.041 88.0003 125.229 87.2554 125.109 87.1221Z" fill="#FFEEEE"/>
</g>
<g id="g112">
<path id="path114" d="M96.8174 21.5075V48.0023C96.4043 47.7942 95.9772 47.5953 95.5451 47.401C94.1414 46.7671 92.6486 46.1934 91.0712 45.6984V21.5075C91.0712 17.1311 89.2733 13.171 86.3626 10.3027C83.452 7.43441 79.4334 5.66244 74.9924 5.66244C66.1148 5.66244 58.9181 12.7546 58.9181 21.5075V45.6984C57.3501 46.1934 55.8666 46.7579 54.4723 47.387C54.0263 47.5859 53.5944 47.7895 53.1719 48.0023V21.5075C53.1719 9.62725 62.9412 7.62939e-06 74.9924 7.62939e-06C87.0481 7.62939e-06 96.8174 9.62725 96.8174 21.5075Z" fill="#FFEEEE"/>
</g>
<g id="g116">
<path id="path118" d="M86.7966 21.5106V44.5726C84.961 44.1701 83.0409 43.8603 81.0645 43.6567V21.3856C81.0645 19.7388 80.3884 18.2444 79.2898 17.162C78.1914 16.0839 76.6751 15.4131 74.999 15.4131C71.6517 15.4131 68.9383 18.0871 68.9383 21.3856V43.652C66.9525 43.8603 65.0278 44.1656 63.1875 44.5726V21.5106C63.1875 15.0846 68.4736 9.87543 74.9896 9.87543C81.5105 9.87543 86.7966 15.0846 86.7966 21.5106Z" fill="#FFEEEE"/>
</g>
<g id="g120">
<path id="path122" d="M74.9908 32.803C73.0025 32.803 71.3906 31.2146 71.3906 29.2552C71.3906 27.2959 73.0025 25.7074 74.9908 25.7074C76.9791 25.7074 78.591 27.2959 78.591 29.2552C78.591 31.2146 76.9791 32.803 74.9908 32.803Z" fill="#FFEEEE"/>
</g>
</g>
</g>
</g>
</g>
</svg>
