<svg preserveAspectRatio="none" width="100%" height="100%" overflow="visible" style="display: block;" viewBox="0 0 14.6 14.6" fill="none" xmlns="http://www.w3.org/2000/svg">
<path id="Vector" d="M0.8 13.8V12.3555C0.8 11.5894 1.10436 10.8546 1.64614 10.3128C2.18791 9.77102 2.92271 9.46666 3.68889 9.46666H6.57778C7.34396 9.46666 8.07876 9.77102 8.62053 10.3128C9.1623 10.8546 9.46667 11.5894 9.46667 12.3555V13.8M10.1889 0.893892C10.8103 1.053 11.3611 1.4144 11.7544 1.92112C12.1477 2.42783 12.3612 3.05104 12.3612 3.6925C12.3612 4.33396 12.1477 4.95717 11.7544 5.46388C11.3611 5.9706 10.8103 6.332 10.1889 6.49111M13.8 13.8V12.3556C13.7963 11.718 13.5818 11.0995 13.1899 10.5965C12.798 10.0936 12.2507 9.7344 11.6333 9.57501M2.24444 3.68889C2.24444 4.45507 2.54881 5.18986 3.09058 5.73164C3.63235 6.27341 4.36715 6.57777 5.13333 6.57777C5.89951 6.57777 6.63431 6.27341 7.17609 5.73164C7.71786 5.18986 8.02222 4.45507 8.02222 3.68889C8.02222 2.92271 7.71786 2.18791 7.17609 1.64613C6.63431 1.10436 5.89951 0.8 5.13333 0.8C4.36715 0.8 3.63235 1.10436 3.09058 1.64613C2.54881 2.18791 2.24444 2.92271 2.24444 3.68889Z" stroke="#003822" stroke-width="1.6" stroke-linecap="round" stroke-linejoin="round"/>
</svg>
