<svg preserveAspectRatio="none" width="100%" height="100%" overflow="visible" style="display: block;" viewBox="0 0 13.4 13.4" fill="none" xmlns="http://www.w3.org/2000/svg">
<path id="Vector" d="M12.7 12.7L8.7 8.7M0.7 5.36667C0.7 5.9795 0.820707 6.58634 1.05523 7.15252C1.28975 7.71871 1.63349 8.23316 2.06683 8.6665C2.50018 9.09984 3.01462 9.44358 3.58081 9.67811C4.147 9.91263 4.75383 10.0333 5.36667 10.0333C5.9795 10.0333 6.58634 9.91263 7.15252 9.67811C7.71871 9.44358 8.23316 9.09984 8.6665 8.6665C9.09984 8.23316 9.44358 7.71871 9.67811 7.15252C9.91263 6.58634 10.0333 5.9795 10.0333 5.36667C10.0333 4.75383 9.91263 4.147 9.67811 3.58081C9.44358 3.01462 9.09984 2.50018 8.6665 2.06683C8.23316 1.63349 7.71871 1.28975 7.15252 1.05523C6.58634 0.820707 5.9795 0.7 5.36667 0.7C4.75383 0.7 4.147 0.820707 3.58081 1.05523C3.01462 1.28975 2.50018 1.63349 2.06683 2.06683C1.63349 2.50018 1.28975 3.01462 1.05523 3.58081C0.820707 4.147 0.7 4.75383 0.7 5.36667Z" stroke="#FFEEEE" stroke-width="1.4" stroke-linecap="round"/>
</svg>
