<svg preserveAspectRatio="none" width="100%" height="100%" overflow="visible" style="display: block;" viewBox="0 0 32 32" fill="none" xmlns="http://www.w3.org/2000/svg">
<g id="Group 110">
<circle id="Ellipse 17" opacity="0.2" cx="16" cy="16" r="15.5" stroke="#FFEEEE"/>
<g id="Group 49">
<path id="Vector" fill-rule="evenodd" clip-rule="evenodd" d="M16.6397 22.1527C15.3639 22.1527 14.771 21.9774 13.7404 21.2759C13.0886 22.065 11.0244 22.6817 10.9343 21.6266C10.9343 20.8346 10.7481 20.1653 10.537 19.4346C10.2856 18.5344 10 17.5319 10 16.0793C10 12.61 13.0234 10 16.6055 10C20.1907 10 23 12.7386 23 16.1114C23.012 19.4321 20.1664 22.135 16.6397 22.1527ZM16.6924 12.9987C14.9479 12.914 13.5883 14.0509 13.2872 15.8338C13.0389 17.3098 13.4797 19.1072 13.8553 19.2008C14.0353 19.2417 14.4885 18.8968 14.771 18.6308C15.2381 18.9347 15.782 19.1171 16.3479 19.1598C18.1555 19.2417 19.7 17.946 19.8214 16.2459C19.892 14.5422 18.5003 13.0991 16.6924 13.0016V12.9987Z" fill="#FFEEEE"/>
</g>
</g>
</svg>
