<svg preserveAspectRatio="none" width="100%" height="100%" overflow="visible" style="display: block;" viewBox="0 0 32 32" fill="none" xmlns="http://www.w3.org/2000/svg">
<g id="Group 109">
<circle id="Ellipse 16" opacity="0.2" cx="16" cy="16" r="15.5" stroke="#FFEEEE"/>
<path id="Path" fill-rule="evenodd" clip-rule="evenodd" d="M9.82494 15.3049C13.0462 13.8937 15.1941 12.9633 16.2689 12.5138C19.3375 11.2304 19.9751 11.0074 20.3907 11.0001C20.4822 10.9985 20.6865 11.0212 20.8189 11.1293C20.9307 11.2205 20.9615 11.3437 20.9762 11.4302C20.9909 11.5166 21.0092 11.7136 20.9947 11.8676C20.8284 13.6245 20.1088 17.8881 19.7428 19.8559C19.5879 20.6885 19.2829 20.9677 18.9876 20.995C18.346 21.0544 17.8587 20.5686 17.2372 20.159C16.2647 19.5179 15.7153 19.1189 14.7713 18.4933C13.6803 17.7704 14.3875 17.3731 15.0093 16.7237C15.172 16.5538 17.9992 13.9679 18.054 13.7333C18.0608 13.704 18.0671 13.5946 18.0025 13.5369C17.9379 13.4792 17.8426 13.4989 17.7738 13.5146C17.6762 13.5369 16.1226 14.5695 13.1129 16.6124C12.6719 16.9169 12.2725 17.0652 11.9146 17.0574C11.5201 17.0489 10.7612 16.8331 10.197 16.6487C9.505 16.4225 8.95502 16.3029 9.00291 15.9188C9.02785 15.7187 9.30186 15.5141 9.82494 15.3049Z" fill="#FFEEEE"/>
</g>
</svg>
